{"title":"Captain Blood(1935)MP-4[DaScubaDude]","uid":12543542,"size":1458576118,"categoryP":"video","categoryS":"movies","magnet":"?xt=urn:btih:dc74c8605a4c2d963299c66c4b81b23e4740522d&amp;dn=Captain+Blood%281935%29MP-4%5BDaScubaDude%5D&amp;tr=udp%3A%2F%2Ftracker.leechers-paradise.org%3A6969&amp;tr=udp%3A%2F%2Fzer0day.ch%3A1337&amp;tr=udp%3A%2F%2Fopen.demonii.com%3A1337&amp;tr=udp%3A%2F%2Ftracker.coppersurfer.tk%3A6969&amp;tr=udp%3A%2F%2Fexodus.desync.com%3A6969","seeders":0,"leechers":0,"uploader":"dascuba","files":1,"time":1444433483,"description":"Captain Blood (1935)\r\nNot Rated  |  119 min  |  Action, Adventure  |  28 December 1935 (USA)\r\n7.8 Your rating:   -/10   Ratings: 7.8/10 from 9,391 users   \r\nReviews: 94 user | 55 critic\r\nAn enslaved doctor and his comrades in chains escape and become pirates of the Caribbean.\r\n\r\nDirector: Michael Curtiz\r\nWriters: Rafael Sabatini (by), Casey Robinson (screen play)\r\nStars: Errol Flynn, Olivia de Havilland, Lionel Atwill\r\n\r\nGeneral\r\nComplete name                            : C:Captain BloodCAPTAIN_BLOOD_Title1.mp4\r\nFormat                                   : MPEG-4\r\nFormat profile                           : Base Media\r\nCodec ID                                 : isom\r\nFile size                                : 1.36 GiB\r\nDuration                                 : 1h 59mn\r\nOverall bit rate mode                    : Constant\r\nOverall bit rate                         : 1 634 Kbps\r\nMovie name                               : CAPTAIN_BLOOD\r\nGenre                                    : Adventure\r\nWriting application                      : Lavf54.6.100\r\n\r\nVideo\r\nID                                       : 1\r\nFormat                                   : MPEG-4 Visual\r\nFormat settings, BVOP                    : No\r\nFormat settings, QPel                    : No\r\nFormat settings, GMC                     : No warppoints\r\nFormat settings, Matrix                  : Default (H.263)\r\nCodec ID                                 : 20\r\nDuration                                 : 1h 59mn\r\nBit rate mode                            : Constant\r\nBit rate                                 : 1 500 Kbps\r\nWidth                                    : 720 pixels\r\nHeight                                   : 540 pixels\r\nDisplay aspect ratio                     : 4:3\r\nFrame rate mode                          : Constant\r\nFrame rate                               : 29.970 fps\r\nColor space                              : YUV\r\nChroma subsampling                       : 4:2:0\r\nBit depth                                : 8 bits\r\nScan type                                : Progressive\r\nCompression mode                         : Lossy\r\nBits/(Pixel*Frame)                       : 0.129\r\nStream size                              : 1.25 GiB (92%)\r\nWriting library                          : Lavc54.23.100\r\n\r\nAudio\r\nID                                       : 2\r\nFormat                                   : MPEG Audio\r\nFormat version                           : Version 1\r\nFormat profile                           : Layer 3\r\nCodec ID                                 : 6B\r\nDuration                                 : 1h 59mn\r\nBit rate mode                            : Constant\r\nBit rate                                 : 128 Kbps\r\nChannel(s)                               : 2 channels\r\nChannel(s)_Original                      : 1 channel\r\nSampling rate                            : 44.1 KHz\r\nCompression mode                         : Lossy\r\nStream size                              : 109 MiB (8%)\r\nWriting library                          : LAME3.99.5","torrent":{"xt":"urn:btih:dc74c8605a4c2d963299c66c4b81b23e4740522d","amp;dn":"Captain+Blood%281935%29MP-4%5BDaScubaDude%5D","amp;tr":["udp%3A%2F%2Ftracker.leechers-paradise.org%3A6969","udp%3A%2F%2Fzer0day.ch%3A1337","udp%3A%2F%2Fopen.demonii.com%3A1337","udp%3A%2F%2Ftracker.coppersurfer.tk%3A6969","udp%3A%2F%2Fexodus.desync.com%3A6969"],"infoHash":"dc74c8605a4c2d963299c66c4b81b23e4740522d","infoHashBuffer":{"type":"Buffer","data":[220,116,200,96,90,76,45,150,50,153,198,108,75,129,178,62,71,64,82,45]},"announce":[],"urlList":[]}}